<svg xmlns="http://www.w3.org/2000/svg" width="3700" height="1200" viewBox="0 0 3700 1200"><path fill="#716A61" d="M362 593 419 366H450C490 365 522 364 528 364C569 364 574 370 602 435L668 370C664 348 657 338 640 331L426 335L432 314L362 335C266 336 205 355 148 400C98 439 76 480 76 532C76 558 80 578 94 613L166 565C157 532 153 508 153 482C153 404 208 372 345 368L289 593C272 610 267 616 250 636H278C226 839 224 844 136 867L98 900L131 901H190C278 902 286 902 324 904C443 908 443 908 489 908C541 908 555 902 600 862C646 820 663 796 663 773C663 768 661 760 659 750L583 778C586 799 587 806 587 816C587 854 574 859 478 859H218C315 770 316 768 352 631C403 628 409 628 433 626C455 625 470 624 476 624C480 623 491 623 503 622C520 609 523 607 541 593ZM663 817C662 826 661 834 661 840C661 884 691 913 735 913C767 913 809 901 841 882C901 848 936 797 936 747C936 710 930 702 873 667C839 645 825 626 825 600C825 566 854 536 888 536C911 536 929 547 950 575C984 542 984 542 997 523C977 499 958 489 930 489C857 489 763 575 763 642C763 673 779 697 817 724C867 759 874 768 874 793C874 829 828 871 789 871C767 871 750 859 740 837C733 822 731 807 730 772C719 781 711 786 707 789C699 794 690 799 681 805C680 805 671 812 663 817ZM1303 774C1227 820 1195 836 1181 836C1168 836 1152 811 1152 789C1152 775 1153 772 1175 677C1180 659 1184 640 1188 621C1189 618 1193 602 1195 593C1229 592 1260 590 1294 588L1332 559H1204C1209 536 1211 529 1214 514C1217 504 1224 477 1238 423L1244 397L1227 406C1221 408 1213 412 1202 417C1195 421 1187 424 1179 428C1175 430 1171 432 1165 434L1156 475L1145 523L1137 559C1128 560 1122 560 1119 560H1095C1093 560 1088 560 1080 561C1075 564 1071 567 1070 567C1067 569 1061 574 1051 582C1049 583 1044 588 1036 593H1060H1106H1128L1118 637C1075 814 1075 814 1075 846C1075 878 1096 913 1115 913C1137 913 1205 872 1301 799ZM1350 910 1427 881 1502 596C1536 570 1559 561 1586 561C1608 561 1621 569 1639 592L1669 497C1651 491 1642 489 1632 489C1613 489 1593 498 1566 517C1553 527 1540 537 1526 546C1520 551 1513 556 1507 560L1519 500C1519 494 1513 489 1506 489C1493 489 1405 532 1344 568L1341 595C1399 567 1400 566 1413 566C1426 566 1432 573 1432 587C1432 601 1422 647 1410 691ZM2052 769C1979 819 1962 829 1952 829C1945 829 1940 821 1940 809C1940 782 1963 677 2000 540C2011 524 2013 522 2029 504C1981 493 1947 489 1903 489C1862 489 1842 493 1817 509C1781 530 1739 561 1726 575C1688 617 1647 752 1647 833C1647 881 1663 913 1688 913C1710 913 1743 893 1868 803C1857 854 1853 879 1853 892C1853 906 1859 913 1869 913C1882 913 1890 909 1961 862C1995 839 2014 826 2051 799ZM1876 762C1841 788 1823 801 1822 802C1789 823 1763 836 1750 836C1733 836 1724 818 1724 786C1724 735 1739 669 1765 611C1789 556 1811 535 1845 535C1863 535 1897 540 1930 548C1910 620 1903 647 1902 652C1896 677 1891 702 1885 728C1884 733 1881 745 1876 762ZM2343 774C2267 820 2235 836 2221 836C2208 836 2192 811 2192 789C2192 775 2193 772 2215 677C2220 659 2224 640 2228 621C2229 618 2233 602 2235 593C2269 592 2300 590 2334 588L2372 559H2244C2249 536 2251 529 2254 514C2257 504 2264 477 2278 423L2284 397L2267 406C2261 408 2253 412 2242 417C2235 421 2227 424 2219 428C2215 430 2211 432 2205 434L2196 475L2185 523L2177 559C2168 560 2162 560 2159 560H2135C2133 560 2128 560 2120 561C2115 564 2111 567 2110 567C2107 569 2101 574 2091 582C2089 583 2084 588 2076 593H2100H2146H2168L2158 637C2115 814 2115 814 2115 846C2115 878 2136 913 2155 913C2177 913 2245 872 2341 799ZM2680 763C2585 840 2557 856 2517 856C2481 856 2461 826 2461 773C2461 771 2461 764 2462 757C2540 704 2556 693 2594 664C2648 623 2669 590 2669 547C2669 511 2648 489 2614 489C2592 489 2575 494 2552 507C2518 526 2478 557 2459 580C2420 629 2387 735 2387 816C2387 876 2418 913 2469 913C2528 913 2597 873 2679 792ZM2464 721C2484 607 2526 531 2569 531C2586 531 2597 547 2597 572C2597 622 2574 648 2464 721ZM2549 440C2612 365 2627 349 2708 267L2663 245L2643 273C2621 304 2590 346 2581 359C2569 375 2550 400 2525 434ZM3037 681C3041 659 3046 640 3050 624C3055 605 3060 586 3065 568L3070 546C3088 541 3089 541 3121 490C3116 490 3103 490 3005 492C2944 493 2926 496 2897 514C2849 543 2815 572 2794 599C2764 639 2728 758 2728 820C2728 845 2734 863 2750 885C2689 938 2671 953 2635 984C2585 1028 2562 1061 2562 1089C2562 1126 2605 1147 2682 1147C2774 1147 2846 1121 2913 1063C2956 1026 2966 1005 2987 906ZM2906 955C2893 1016 2884 1038 2866 1057C2844 1083 2803 1095 2744 1095C2679 1095 2644 1078 2644 1045C2644 1004 2672 979 2949 766ZM2830 824C2812 806 2805 790 2805 766C2805 743 2810 718 2828 659C2846 599 2860 573 2883 559C2901 547 2923 545 3023 545H3055C3013 576 3008 580 2999 595C2991 608 2980 646 2958 730C2941 741 2938 744 2925 753C2901 770 2878 788 2856 805ZM3313 284C3285 306 3262 324 3244 336C3251 357 3260 374 3282 406C3310 381 3313 378 3347 352C3344 346 3342 342 3334 329C3328 317 3327 317 3319 297ZM3351 784 3334 793C3265 831 3253 836 3241 836C3230 836 3223 825 3223 808C3223 791 3223 791 3256 659C3293 507 3293 507 3293 499C3293 493 3288 489 3281 489C3264 489 3205 522 3123 577L3121 605C3182 572 3185 571 3194 571C3202 571 3206 577 3206 588C3206 602 3203 616 3188 673C3141 847 3141 847 3141 873C3141 897 3150 913 3165 913C3182 913 3209 900 3262 866C3281 854 3300 842 3319 829C3328 824 3335 819 3347 812ZM3772 769C3699 819 3682 829 3672 829C3665 829 3660 821 3660 809C3660 782 3683 677 3720 540C3731 524 3733 522 3749 504C3701 493 3667 489 3623 489C3582 489 3562 493 3537 509C3501 530 3459 561 3446 575C3408 617 3367 752 3367 833C3367 881 3383 913 3408 913C3430 913 3463 893 3588 803C3577 854 3573 879 3573 892C3573 906 3579 913 3589 913C3602 913 3610 909 3681 862C3715 839 3734 826 3771 799ZM3596 762C3561 788 3543 801 3542 802C3509 823 3483 836 3470 836C3453 836 3444 818 3444 786C3444 735 3459 669 3485 611C3509 556 3531 535 3565 535C3583 535 3617 540 3650 548C3630 620 3623 647 3622 652C3616 677 3611 702 3605 728C3604 733 3601 745 3596 762Z"/></svg>